<?xml version="1.0" encoding="UTF-8"?>
<!-- Generator: Adobe Illustrator 23.0.3, SVG Export Plug-In . SVG Version: 6.00 Build 0)  -->
<svg width="1e3" height="253.02" version="1.1" viewBox="0 0 1e3 253.02" xml:space="preserve" xmlns="http://www.w3.org/2000/svg">
<g transform="matrix(2.4806 0 0 2.4806 -21.829 -29.767)" style="stroke-width:.40313">
	<g style="stroke-width:.40313">
		<path d="m202 26c-9 0-16 7.3-16 16.2 0 9 7 16.3 16 16.3s17-7.3 17-16.3c0-8.9-8-16.2-17-16.2z" style="stroke-width:.40313"/>
		<path d="m202 12c-16 0-30 13.4-30 30.1l-19 27.1c-1-0.1-1-0.2-2-0.2-4 0-8 1.2-12 3.2l-85.4-34.4c-2.3-10.2-11.4-17.8-22.2-17.8-12.4 0-22.6 10.2-22.6 22.7 0 12.4 10.2 22.6 22.6 22.6 4.3 0 8.2-1.1 11.6-3.2l86 34.4c2 10.5 11 17.5 22 17.5s21-9 22-20.1l29-21.2c17 0 31-13.6 31-30.4 0-16.7-14-30.3-31-30.3zm-164.1 19.5c-6.7-2.4-14.1 0.9-16.8 7.5-2.6 6.7 0.4 14.2 6.9 17.1l7 2.8c-1.1 0.3-2.3 0.4-3.6 0.4-9.2 0-16.6-7.4-16.6-16.6 0-9.3 7.4-16.7 16.6-16.7 6.4 0 12 3.5 14.8 8.8zm113.1 76.5c-7 0-12-3-15-8.5 3 1.5 5 2.5 8 3.5 7 3 14-1 17-7.4 2-6.2 0-14.7-7-17.4l-7-2.8c1-0.2 3-0.4 4-0.4 9 0 16 7.5 16 16.7 0 9.3-7 16.3-16 16.3zm51-45.3c-11 0-20-9.1-20-20.4 0-11.2 9-20.3 20-20.3 12 0 21 9.1 21 20.3 0 11.3-9 20.4-21 20.4z" style="stroke-width:.40313"/>
	</g>
	
	
<g style="stroke-width:.40313"><path d="m258.81 24.6q6.6829 0 10.674 3.8519l-4.084 4.0376q-2.274-2.274-6.7757-2.274-2.4597 0-3.8055 1.2066-1.2994 1.1602-1.2994 2.9702 0 1.4387 0.97458 2.3668 1.0674 0.97458 3.0166 1.253l3.9448 0.60331q4.2232 0.60331 6.3116 2.5989 2.5525 2.4133 2.5525 6.9613 0 4.6873-3.4342 7.379-3.4342 2.6453-8.8177 2.6453-3.9448 0-6.8221-0.97458-2.8774-1.021-5.2442-3.3878l4.1768-4.1768q2.7845 2.7845 7.9359 2.7845 2.8773 0 4.3624-1.0674 1.5315-1.0674 1.5315-3.063 0-1.7171-1.021-2.7381-0.88176-0.78895-2.9702-1.1138l-3.9448-0.60332q-4.2232-0.64972-6.4044-2.7381-2.3668-2.3204-2.3668-6.4972 0-4.5017 3.1094-7.2398 3.1094-2.7845 8.4-2.7845z" style="paint-order:stroke fill markers;stroke-linecap:round;stroke-linejoin:round;stroke-width:4.571" aria-label="S"/><path d="m301.71 24.878v5.7547h-8.632v27.288h-6.4508v-27.288h-8.632v-5.7547z" style="paint-order:stroke fill markers;stroke-linecap:round;stroke-linejoin:round;stroke-width:4.571" aria-label="T"/><path d="m333.77 24.878v5.7547h-15.315v7.7503h13.087v5.7547h-13.087v8.0287h15.315v5.7547h-21.766v-33.043z" style="paint-order:stroke fill markers;stroke-linecap:round;stroke-linejoin:round;stroke-width:4.571" aria-label="E"/><path d="m361.12 24.878 12.066 33.043h-6.7757l-1.9492-5.8475h-11.695l-1.9956 5.8475h-6.7757l12.066-33.043zm-2.5061 9.7923-4.084 11.973h8.1215z" style="paint-order:stroke fill markers;stroke-linecap:round;stroke-linejoin:round;stroke-width:4.571" aria-label="A"/><path d="m411.93 24.878v33.043h-6.4508v-19.213l-6.3116 11.741h-4.3624l-6.358-11.741v19.213h-6.4508v-33.043h6.358l8.632 17.125 8.5856-17.125z" style="paint-order:stroke fill markers;stroke-linecap:round;stroke-linejoin:round;stroke-width:4.571" aria-label="M"/></g></g>
</svg>
